<svg id="レイヤー_1" data-name="レイヤー 1" xmlns="http://www.w3.org/2000/svg" viewBox="0 0 140 70"><defs><style>.cls-1{fill:#fff;}</style></defs><title>アートボード 1</title><path class="cls-1" d="M52.56,41.69c2.78-.07,5.23,1.13,11.32,1.13S77.19,40.63,82,36.13C88,30.37,91,25.08,94.8,21.77a25.44,25.44,0,0,1,8.87-5.17,37.43,37.43,0,0,0-19.6,2.52c-4.07,1.81-9.2,4.77-12.45,8.74.2-4.17,2.85-9.8,7-13.24a26.4,26.4,0,0,0-13.31,7.81c-3,3.51-4.9,7.61-6.49,11.12A20.62,20.62,0,0,1,52.56,41.69Z"/><path class="cls-1" d="M68.25,17.93c2.45-3,5.53-3.85,7.88-4.63a8.37,8.37,0,0,0,5.69-7.22A13.79,13.79,0,0,0,68.25,17.93Z"/><path class="cls-1" d="M61,25.8c1.39-3,5.7-6.16,6.09-12.91.24-4-1.33-7.35-2.65-9.93-.13,1.92-3.25,7.15-4.23,10S59.44,22.43,61,25.8Z"/><path class="cls-1" d="M50.71,41c2.78-2.18,7.81-7.68,8.07-14.3.2-5-2.32-10.66-2.32-14a14.82,14.82,0,0,1,.8-4.44C55.8,9.52,51.4,14.43,51,20c-.46,6,.79,13.18.86,15A11.69,11.69,0,0,1,50.71,41Z"/><path class="cls-1" d="M6.13,57.69c0-.76-.3-1.19-.66-1.2H5.06S5,56.42,5,56.39V56C5,56,5,56,5.06,56h.28c.15,0,.37,0,.71,0s.55,0,.67,0a.32.32,0,0,1,.29.17L9.1,59.67c.11.18,1.79,2.86,2,3.27h0V61.41c0-1.15,0-1.79,0-2.43A19.79,19.79,0,0,0,11,57c-.08-.32-.27-.51-.55-.51h-.32s-.06,0-.06-.09V56c0-.05,0-.08.06-.08s.46,0,1.1,0,.84,0,1,0,.08,0,.08.09v.32c0,.05,0,.09-.06.09H12c-.27,0-.37.22-.39.71,0,.87,0,2.15,0,3V65c0,.18,0,.31,0,.31s-.21-.15-.24-.21-.6-1-1.22-2-1.43-2.32-1.48-2.39-1.94-3.12-2-3.22H6.48v2.87c0,1.2.08,3.31.1,3.57,0,.5.1.75.37.75h.3c.07,0,.08,0,.08.12v.29c0,.08,0,.1-.08.1s-.7,0-1,0l-1,0s0,0,0-.09v-.34s0-.08.06-.08h.34c.29,0,.4-.15.45-.79,0-.25,0-1.72,0-4Z"/><path class="cls-1" d="M18.17,63.63c0,.74.16,1,.39,1a.59.59,0,0,0,.45-.19c.05-.06.08-.09.13-.05l.13.1s.06.1,0,.23a1.07,1.07,0,0,1-1,.63,1,1,0,0,1-.92-.87h0a2.78,2.78,0,0,1-1.28.79,2.42,2.42,0,0,1-.76.08c-.31,0-.78-.26-.78-1.07,0-.6.27-1.11,1.29-1.57a8.53,8.53,0,0,0,1.46-.75v-.83a1.51,1.51,0,0,0-.18-.72,1,1,0,0,0-.78-.29,1.45,1.45,0,0,0-.84.27c-.18.17-.06.36-.06.59,0,.45-.16.74-.69.74-.21,0-.31-.12-.31-.41a1.63,1.63,0,0,1,.89-1.22,2.85,2.85,0,0,1,1.58-.45,1.33,1.33,0,0,1,1,.35,1.14,1.14,0,0,1,.28.92v2.74Zm-.94-1.31c-.47.35-1.73.61-1.73,1.68a.64.64,0,0,0,.67.71c.37,0,1.06-.45,1.06-.8Z"/><path class="cls-1" d="M21.64,68.28a1.17,1.17,0,0,1-.66-1c0-.72.74-1.28,1.36-1.55v-.05a1,1,0,0,1-.87-.91c0-.62.71-1.06,1.16-1.23v0a2.06,2.06,0,0,1-1.2-2,2,2,0,0,1,2.21-1.88,2.08,2.08,0,0,1,1.63.75,2.3,2.3,0,0,1,1.22-.51c.43,0,.63.29.61.54a.49.49,0,0,1-.51.48.65.65,0,0,1-.45-.19.52.52,0,0,0-.27-.12,1,1,0,0,0-.41.08,2.44,2.44,0,0,1,.19,1,2.14,2.14,0,0,1-.48,1.4,2.31,2.31,0,0,1-2.16.58c-.26.1-.69.36-.69.72,0,.53.65.49,1.51.44a3.15,3.15,0,0,1,2.23.47,1.52,1.52,0,0,1,.63,1.24,1.85,1.85,0,0,1-.87,1.59,3.89,3.89,0,0,1-2.21.61A4.05,4.05,0,0,1,21.64,68.28Zm4.27-1.33c0-.76-.58-1.35-1.88-1.26l-1.24.09a1.38,1.38,0,0,0-1,1.24,1.24,1.24,0,0,0,.5.89,2.92,2.92,0,0,0,1.81.36C24.55,68.28,26,67.94,25.91,66.95Zm-1.2-5.51a1.61,1.61,0,0,0-.35-1.16,1,1,0,0,0-.62-.29,1.19,1.19,0,0,0-.92.36,2.15,2.15,0,0,0-.47,1.53A1.61,1.61,0,0,0,22.76,63a1.05,1.05,0,0,0,.78.32C24.42,63.32,24.7,62.25,24.7,61.43Z"/><path class="cls-1" d="M29.62,64.44a2.89,2.89,0,0,1,.4-4.19,2.8,2.8,0,0,1,1.73-.62,2.74,2.74,0,0,1,1.81.75,2.87,2.87,0,0,1,.88,2.11,3,3,0,0,1-2.86,2.85A2.61,2.61,0,0,1,29.62,64.44Zm3.74-2.08A2.23,2.23,0,0,0,31.65,60a1.25,1.25,0,0,0-1,.41,2.54,2.54,0,0,0-.69,2,2.79,2.79,0,0,0,.49,1.81,1.43,1.43,0,0,0,1.28.67C32.73,64.94,33.36,63.74,33.36,62.35Z"/><path class="cls-1" d="M36.18,68a.57.57,0,0,1,.6-.51,2.2,2.2,0,0,1,.6.14.31.31,0,0,0,.27-.08,15.64,15.64,0,0,0,1-2.21c-.06-.32-1.44-4.36-1.54-4.63s-.27-.54-.61-.54H36.2c-.09,0-.1,0-.1-.12v-.26c0-.05,0-.09.1-.09s.43,0,1.19,0,1.06,0,1.2,0,.12,0,.12.09v.27c0,.06,0,.1-.08.1h-.25c-.14,0-.19.09-.17.28s.92,3.13,1.06,3.42h.05c.13-.21,1.26-2.89,1.33-3.21s0-.49-.22-.49h-.21c-.08,0-.09,0-.09-.1v-.26c0-.06,0-.1.08-.1s.44,0,1.06,0c.35,0,.65,0,.79,0s.08.05.08.1v.25c0,.08,0,.12-.06.12h-.21a.58.58,0,0,0-.45.23,43.87,43.87,0,0,0-2,4.35c-.63,1.44-1.14,2.64-1.37,3.07a1.21,1.21,0,0,1-1.1.84C36.43,68.69,36.18,68.42,36.18,68Z"/><path class="cls-1" d="M47.64,63.63c0,.74.16,1,.39,1a.59.59,0,0,0,.45-.19c.05-.06.08-.09.13-.05l.13.1s.06.1,0,.23a1.07,1.07,0,0,1-1,.63,1,1,0,0,1-.92-.87h0a2.78,2.78,0,0,1-1.28.79,2.42,2.42,0,0,1-.76.08c-.31,0-.78-.26-.78-1.07,0-.6.27-1.11,1.29-1.57a8.53,8.53,0,0,0,1.46-.75v-.83a1.51,1.51,0,0,0-.18-.72,1,1,0,0,0-.78-.29,1.45,1.45,0,0,0-.84.27c-.18.17-.06.36-.06.59,0,.45-.16.74-.69.74-.21,0-.31-.12-.31-.41a1.63,1.63,0,0,1,.89-1.22,2.85,2.85,0,0,1,1.58-.45,1.33,1.33,0,0,1,1,.35,1.14,1.14,0,0,1,.28.92v2.74Zm-.94-1.31c-.47.35-1.73.61-1.73,1.68a.64.64,0,0,0,.67.71c.37,0,1.06-.45,1.06-.8Z"/><path class="cls-1" d="M55.13,64.7c-.14-.12-.21-.16-.27-.16s-.12.09-.19.22-.13.16-.21.16-.13-.06-.11-.21c0-.32.16-2,.2-2.34,0-.08,0-.08.08-.08h.17s.07,0,.07.1a2.75,2.75,0,0,0,.42,1.5,1.9,1.9,0,0,0,1.63,1,1.56,1.56,0,0,0,1.58-1.64c0-1.33-.86-1.83-1.79-2.19A4.37,4.37,0,0,1,55,60a2.7,2.7,0,0,1-.58-1.89,2.56,2.56,0,0,1,.72-1.66,2.18,2.18,0,0,1,1.63-.62,3.08,3.08,0,0,1,1.37.32c.11.06.16.05.22,0l.15-.15a.22.22,0,0,1,.15-.08c.06,0,.09.1.09.22,0,.45.15,1.77.16,2.06,0,.06,0,.09-.06.1l-.14,0s-.06,0-.07,0A3.26,3.26,0,0,0,58,56.84a1.55,1.55,0,0,0-1.27-.56,1.4,1.4,0,0,0-1.41,1.51,1.69,1.69,0,0,0,.36,1.13A3.55,3.55,0,0,0,57,59.7a3.62,3.62,0,0,1,1.88,1.07,2.71,2.71,0,0,1,.51,1.76c0,1.53-.84,2.83-2.38,2.83A2.69,2.69,0,0,1,55.13,64.7Z"/><path class="cls-1" d="M63,63.56c0,1,.44,1.14.67,1.14a1.86,1.86,0,0,0,.85-.17.11.11,0,0,1,.16,0l.06.12a.11.11,0,0,1,0,.14,2.18,2.18,0,0,1-1.44.52,1.32,1.32,0,0,1-1.26-1.1c0-.53,0-1.67,0-1.85v-.28c0-.23,0-1.1,0-1.64h-.79c-.12,0-.19-.05-.19-.16s.08-.14.23-.23a5.84,5.84,0,0,0,1.48-1.63A.17.17,0,0,1,63,58.3c.1,0,.13.09.13.19l-.06,1.28h1.8c.08,0,.12.06.09.12l-.13.45c0,.06,0,.1-.12.1H63.06c0,.59,0,1.22,0,1.81Z"/><path class="cls-1" d="M70.28,63.63c0,.74.16,1,.39,1a.59.59,0,0,0,.45-.19c.05-.06.08-.09.13-.05l.13.1s.06.1,0,.23a1.07,1.07,0,0,1-1,.63,1,1,0,0,1-.92-.87h0a2.78,2.78,0,0,1-1.28.79,2.42,2.42,0,0,1-.76.08c-.31,0-.78-.26-.78-1.07,0-.6.27-1.11,1.29-1.57a8.53,8.53,0,0,0,1.46-.75v-.83a1.51,1.51,0,0,0-.18-.72,1,1,0,0,0-.78-.29,1.45,1.45,0,0,0-.84.27c-.18.17-.06.36-.06.59,0,.45-.16.74-.69.74-.21,0-.31-.12-.31-.41a1.63,1.63,0,0,1,.89-1.22A2.85,2.85,0,0,1,69,59.62,1.33,1.33,0,0,1,70,60a1.14,1.14,0,0,1,.28.92v2.74Zm-.94-1.31c-.47.35-1.73.61-1.73,1.68a.64.64,0,0,0,.67.71c.37,0,1.06-.45,1.06-.8Z"/><path class="cls-1" d="M74.62,63.56c0,1,.44,1.14.67,1.14a1.86,1.86,0,0,0,.85-.17.11.11,0,0,1,.16,0l.06.12a.1.1,0,0,1,0,.14,2.18,2.18,0,0,1-1.44.52,1.32,1.32,0,0,1-1.26-1.1c0-.53,0-1.67,0-1.85v-.28c0-.23,0-1.1,0-1.64h-.79c-.12,0-.19-.05-.19-.16s.08-.14.23-.23a5.83,5.83,0,0,0,1.48-1.63.17.17,0,0,1,.18-.13c.1,0,.13.09.13.19l-.06,1.28h1.8c.08,0,.12.06.09.12l-.13.45c0,.06,0,.1-.12.1H74.66c0,.59,0,1.22,0,1.81Z"/><path class="cls-1" d="M78.85,61.41c0-.44-.08-.67-.72-.78-.09,0-.12,0-.12-.09v-.12s0-.06.09-.09a10.59,10.59,0,0,0,1.4-.63.54.54,0,0,1,.25-.08c.06,0,.08.06.06.16s0,1,0,2.11V63.3c0,.51,0,1,0,1.11s.06.34.21.34h.6c.1,0,.13,0,.13.12v.22c0,.09,0,.13-.12.13s-.7,0-1.24,0c-.75,0-1.26,0-1.4,0s-.1,0-.1-.1v-.26c0-.08,0-.1.13-.1h.63c.14,0,.19-.05.21-.26,0-.39,0-.79,0-1.18Zm-.58-3.95a.72.72,0,0,1,.79-.67.64.64,0,0,1,.67.63.7.7,0,0,1-.75.71A.73.73,0,0,1,78.27,57.46Z"/><path class="cls-1" d="M83.12,64.44a2.89,2.89,0,0,1,.4-4.19,2.8,2.8,0,0,1,1.73-.62,2.74,2.74,0,0,1,1.81.75,2.87,2.87,0,0,1,.88,2.11,3,3,0,0,1-2.86,2.85A2.61,2.61,0,0,1,83.12,64.44Zm3.74-2.08A2.23,2.23,0,0,0,85.15,60a1.25,1.25,0,0,0-1,.41,2.54,2.54,0,0,0-.69,2A2.79,2.79,0,0,0,84,64.27a1.43,1.43,0,0,0,1.28.67C86.23,64.94,86.86,63.74,86.86,62.35Z"/><path class="cls-1" d="M95.1,64.47c0,.21.12.27.28.27h.41c.12,0,.14,0,.14.12v.21c0,.09,0,.14-.1.14s-.49,0-1.23,0-1.07,0-1.16,0-.1,0-.1-.14v-.21c0-.09,0-.12.17-.12h.38c.14,0,.25-.06.26-.3s0-.75,0-1.09V61.65c0-.52,0-.89-.37-1.16a1.42,1.42,0,0,0-.95-.23,1.51,1.51,0,0,0-1,.51,1.27,1.27,0,0,0-.3.88v2.68c0,.35,0,.43.31.43h.32c.1,0,.13,0,.13.13v.22c0,.08,0,.12-.09.12s-.44,0-1.13,0-1.07,0-1.15,0-.09,0-.09-.12v-.23c0-.08,0-.12.13-.12h.38c.17,0,.26,0,.26-.26v-3A.8.8,0,0,0,90,60.7l-.1-.05c-.09,0-.1-.08-.1-.12v-.06c0-.06.05-.1.12-.13l1.11-.62a.69.69,0,0,1,.23-.09c.06,0,.09.05.1.16l.09.79h0a2.59,2.59,0,0,1,1.77-.95,2,2,0,0,1,1.1.29,1.88,1.88,0,0,1,.71,1.23Z"/><path class="cls-1" d="M102.09,64.18A6.11,6.11,0,0,1,101,60.55a5.77,5.77,0,0,1,1-3.43,3.18,3.18,0,0,1,2.52-1.31,3.54,3.54,0,0,1,2,.71c.13.1.18.09.2,0l.08-.38c0-.08,0-.08.13-.08s.11,0,.11.21.2,2.15.25,2.51c0,.06,0,.12,0,.13l-.15.05c-.05,0-.07,0-.1-.1a5.4,5.4,0,0,0-.79-1.6,2.16,2.16,0,0,0-1.76-1c-1.81,0-2.53,2.06-2.52,3.95a6.15,6.15,0,0,0,1,3.32,2,2,0,0,0,1.94,1.09A3,3,0,0,0,107.42,63c0-.06.05-.08.08,0l.13.13s.05.05,0,.12a3.56,3.56,0,0,1-3,2.17A3.12,3.12,0,0,1,102.09,64.18Z"/><path class="cls-1" d="M111,61.32c0,.67,0,2.63,0,3,0,.22.06.4.34.4h.58c.12,0,.14,0,.14.12v.22c0,.08,0,.13-.08.13s-.66,0-1.46,0-1.35,0-1.46,0-.09-.05-.09-.13v-.22c0-.09,0-.12.17-.12h.62c.14,0,.27-.09.28-.32,0-.4,0-2.63,0-3.38v-.82c0-.92,0-2.1,0-2.43a.78.78,0,0,0-.65-.78l-.26-.09c-.06,0-.08,0-.08-.06v-.1s0-.06.12-.09a11.63,11.63,0,0,0,1.51-.75.48.48,0,0,1,.27-.1c.09,0,.12.06.1.23,0,.71-.05,3.4-.05,4.12Z"/><path class="cls-1" d="M114.42,61.41c0-.44-.08-.67-.72-.78-.09,0-.12,0-.12-.09v-.12s0-.06.09-.09a10.59,10.59,0,0,0,1.4-.63.54.54,0,0,1,.25-.08c.06,0,.08.06.06.16s0,1,0,2.11V63.3c0,.51,0,1,0,1.11s.06.34.21.34h.6c.1,0,.13,0,.13.12v.22c0,.09,0,.13-.12.13s-.7,0-1.24,0c-.75,0-1.26,0-1.4,0s-.1,0-.1-.1v-.26c0-.08,0-.1.13-.1h.63c.14,0,.19-.05.21-.26,0-.39,0-.79,0-1.18Zm-.58-3.95a.72.72,0,0,1,.79-.67.64.64,0,0,1,.67.63.7.7,0,0,1-.75.71A.73.73,0,0,1,113.84,57.46Z"/><path class="cls-1" d="M123.32,64.47c0,.21.12.27.28.27H124c.12,0,.14,0,.14.12v.21c0,.09,0,.14-.1.14s-.49,0-1.23,0-1.07,0-1.16,0-.1,0-.1-.14v-.21c0-.09,0-.12.17-.12h.38c.14,0,.25-.06.26-.3s0-.75,0-1.09V61.65c0-.52,0-.89-.37-1.16a1.42,1.42,0,0,0-.95-.23,1.51,1.51,0,0,0-1,.51,1.27,1.27,0,0,0-.3.88v2.68c0,.35,0,.43.31.43h.32c.1,0,.13,0,.13.13v.22c0,.08,0,.12-.09.12s-.44,0-1.13,0-1.07,0-1.15,0-.09,0-.09-.12v-.23c0-.08,0-.12.13-.12h.38c.17,0,.26,0,.26-.26v-3a.8.8,0,0,0-.53-.76l-.1-.05c-.09,0-.1-.08-.1-.12v-.06c0-.06.05-.1.12-.13l1.11-.62a.69.69,0,0,1,.23-.09c.06,0,.09.05.1.16l.09.79h0a2.59,2.59,0,0,1,1.77-.95,2,2,0,0,1,1.1.29,1.88,1.88,0,0,1,.71,1.23Z"/><path class="cls-1" d="M126.7,61.41c0-.44-.08-.67-.72-.78-.09,0-.12,0-.12-.09v-.12s0-.06.09-.09a10.59,10.59,0,0,0,1.4-.63.54.54,0,0,1,.25-.08c.06,0,.08.06.06.16s0,1,0,2.11V63.3c0,.51,0,1,0,1.11s.06.34.21.34h.6c.1,0,.13,0,.13.12v.22c0,.09,0,.13-.12.13s-.7,0-1.24,0c-.75,0-1.26,0-1.4,0s-.1,0-.1-.1v-.26c0-.08,0-.1.13-.1h.63c.14,0,.19-.05.21-.26,0-.39,0-.79,0-1.18Zm-.58-3.95a.72.72,0,0,1,.79-.67.64.64,0,0,1,.67.63.7.7,0,0,1-.75.71A.73.73,0,0,1,126.12,57.46Z"/><path class="cls-1" d="M131.23,62a3.65,3.65,0,0,0,.66,2,1.66,1.66,0,0,0,1.41.66,1.78,1.78,0,0,0,1.42-.56.07.07,0,0,1,.1,0l.13.13c.05.05.06.09,0,.17a3,3,0,0,1-2.08.92,2.36,2.36,0,0,1-2-.91,2.68,2.68,0,0,1-.58-1.76,2.9,2.9,0,0,1,2.77-3c1.35,0,1.76.78,1.76,1a.44.44,0,0,1-.48.45.81.81,0,0,1-.71-.52c-.28-.53-.56-.57-.87-.57C132,60,131.23,60.71,131.23,62Z"/></svg>